# xmcd
#
# Track frame offsets:
#	182
#	20145
#	38407
#	66660
#	88490
#	105392
#	125112
#	151207
#	171367
#	187430
#
# Disc length: 2851 seconds
#
# Revision: 3
# Processed by: cddbd v1.5.2PL0 Copyright (c) Steve Scherf et al.
# Submitted via: dBpowerAMP V4.0
#
DISCID=940b210a
DTITLE=Coco Robicheaux - Spiritland
DYEAR=1996
DGENRE=Blues
TTITLE0=Walking With The Spirit
TTITLE1=Pit Bull
TTITLE2=Spiritland
TTITLE3=Broken String
TTITLE4=We Will Fly Away
TTITLE5=Working Man
TTITLE6=I Knew Without Asking
TTITLE7=Saturday Night Before Christmas
TTITLE8=Cryin Inside
TTITLE9=St. John's Eve
EXTD=
EXTT0=
EXTT1=
EXTT2=
EXTT3=
EXTT4=
EXTT5=
EXTT6=
EXTT7=
EXTT8=
EXTT9=
PLAYORDER=
